<?xml version="1.0" standalone="no"?>
<!DOCTYPE svg PUBLIC "-//W3C//DTD SVG 1.0//EN" "http://www.w3.org/TR/2001/REC-SVG-20010904/DTD/svg10.dtd">
<svg xmlns="http://www.w3.org/2000/svg" xmlns:xlink="http://www.w3.org/1999/xlink" id="body_1" width="41" height="79">

<g transform="matrix(0.1906977 0 0 0.1908213 0 0)">
	<g transform="matrix(1.002185 0 0 0.9989443 -347.7784 -267.7177)">
	</g>
    <path transform="matrix(1.002185 0 0 0.9989443 -347.7784 -267.7177)"  d="M414.2701 269.0006C 424.4498 279.4333 428.0826 300.2829 428.0826 328.1881L428.0826 328.1881L428.0826 540.7194L441.9263 540.7194L441.9263 324.7819C 441.9263 293.4835 431.4825 277.7341 414.2701 269.0006zM422.7388 269.0006C 436.8043 278.4605 448.9576 293.2372 448.9576 324.7818L448.9576 324.7818L448.9576 540.7194L463.0201 540.7194L463.0201 324.7819C 463.0201 289.8439 445.5473 276.0347 422.7388 269.0006zM434.1451 269.0006C 447.2391 275.0673 469.8013 286.4452 469.8013 324.7818L469.8013 324.7818L469.8013 540.7194L483.8951 540.7194L483.8951 324.7819C 483.8951 277.7118 447.2391 270.7 434.1451 269.0006zM461.8013 615.9381C 439.2391 615.9381 424.9263 630.5072 424.9263 649.4381C 424.9263 668.6044 438.9854 681.4381 461.3013 681.4381C 467.13 681.4381 473.6813 680.4812 479.9888 678.7819L479.9888 678.7819L479.9888 650.4069C 479.9888 646.2857 476.3746 642.8756 472.4888 642.8756L472.4888 642.8756L459.6138 642.8756C 462.2956 645.296 463.2701 647.4861 463.2701 651.1256L463.2701 651.1256L463.2701 671.2506C 461.8197 671.4955 460.3628 671.5006 459.1451 671.5006C 448.7191 671.5006 442.3951 662.5287 442.3951 647.9694C 442.3951 634.1379 450.8828 626.8444 461.8013 626.8444C 467.1374 626.8444 472.2417 628.3027 476.1138 630.9694L476.1138 630.9694L476.1138 618.3756C 471.7491 616.6749 466.8911 615.9381 461.8013 615.9381zM363.0513 617.4069C 365.7194 619.5919 366.7076 621.0343 366.7076 623.2194C 366.7076 624.433 366.4391 625.4144 364.9888 629.7819L364.9888 629.7819L348.0201 680.0006L359.6451 680.0006L364.7701 664.4694L385.6138 664.4694L390.9576 680.0006L408.6763 680.0006L389.0201 624.6881C 386.8446 618.382 381.998 617.4069 380.3013 617.4069L380.3013 617.4069L363.0513 617.4069zM504.2701 617.4069C 506.9381 619.8328 507.6763 621.7711 507.6763 625.6569L507.6763 625.6569L507.6763 680.0006L524.6451 680.0006L524.6451 653.7819L543.8326 653.7819L543.8326 680.0006L560.5513 680.0006L560.5513 617.6569L543.8326 617.6569L543.8326 643.1256L524.6451 643.1256L524.6451 625.4069C 524.6451 621.0408 521.0234 617.4069 516.6451 617.4069L516.6451 617.4069L504.2701 617.4069zM374.9576 633.4069L382.2388 654.7506L367.9263 654.7506L374.9576 633.4069z" stroke="none" fill="#231F20" fill-rule="nonzero" />
	<g transform="matrix(1.002185 0 0 0.9989443 -347.7784 -267.7177)">
	</g>
    <path transform="matrix(1.002185 0 0 0.9989443 -347.7784 -267.7177)"  d="M504.7701 331.5943L504.7701 516.2194C 504.7701 544.1245 501.1159 564.9833 490.6763 575.6569C 508.1487 566.9234 518.5826 551.174 518.5826 519.8756L518.5826 519.8756L518.5826 331.5944L504.7701 331.5944L504.7701 331.5943zM525.6138 331.5943L525.6138 519.8756C 525.6138 551.174 513.4918 565.9506 499.4263 575.6569C 522.2348 568.6227 539.6763 554.5741 539.6763 519.8756L539.6763 519.8756L539.6763 331.5944L525.6138 331.5944zM546.4888 331.5943L546.4888 519.8756C 546.4888 558.2136 523.8953 569.3493 510.8013 575.6569C 523.8953 573.7167 560.5513 566.947 560.5513 519.8756L560.5513 519.8756L560.5513 331.5944L546.4888 331.5944z" stroke="none" fill="#B01028" fill-rule="nonzero" />
	<g transform="matrix(1.002185 0 0 0.9989443 -347.7784 -267.7177)">
	</g>
    <path transform="matrix(1.002185 0 0 0.9989443 -347.7784 -267.7177)"  d="M351.4263 331.5943L351.4263 519.8756C 351.4263 566.947 388.0374 573.7167 401.1451 575.6569C 388.0374 569.3493 365.2388 558.2136 365.2388 519.8756L365.2388 519.8756L365.2388 331.5944L351.4263 331.5944L351.4263 331.5943zM372.2701 331.5943L372.2701 519.8756C 372.2701 554.5741 389.7528 568.6227 412.3013 575.6569C 398.4821 565.9506 386.3638 551.174 386.3638 519.8756L386.3638 519.8756L386.3638 331.5944L372.2701 331.5944zM393.1451 331.5943L393.1451 519.8756C 393.1451 551.174 403.5789 566.9234 421.0513 575.6569C 410.6254 564.9833 407.2076 544.1245 407.2076 516.2194L407.2076 516.2194L407.2076 331.5944L393.1451 331.5944z" stroke="none" fill="#006B3B" fill-rule="nonzero" />
</g>
</svg>